<svg fill="none" height="100%" width="100%" viewBox="0 0 32 32" xmlns:xlink="http://www.w3.org/1999/xlink" xmlns="http://www.w3.org/2000/svg"><g id="i0"><animate repeatCount="indefinite" attributeName="opacity" dur="1.401s" begin="0s" fill="freeze" values="1; 1; 0; 0" keyTimes="0; 0.2; 0.566667; 1" keySplines="0 0 1 1; 0 0 1 1; 0 0 1 1" calcMode="spline" /><g transform="translate(16,16)"><g transform="scale(1,1)"><animateTransform repeatCount="indefinite" type="scale" attributeName="transform" dur="1.401s" begin="0s" calcMode="spline" values="1 1; 1.8 1.8; 1 1; 1 1" keyTimes="0; 0.5; 1; 1" keySplines="1 0 0.847 1; 0.127 0 0 1; 0 0 1 1" fill="freeze" /><g transform="translate(-8.25,-8.25)"><g id="i1" transform="matrix(1,0,0,1,8.25,8.25)"><path fill="#fc2c57" d="M-8,0C-8,4.416,-4.416,8,0,8C4.416,8,8,4.416,8,0C8,-4.416,4.416,-8,0,-8C-4.416,-8,-8,-4.416,-8,0Z" /></g></g></g></g></g><g id="i2"><g transform="translate(16,16)"><g transform="scale(1,1)"><animateTransform repeatCount="indefinite" type="scale" attributeName="transform" dur="1.401s" begin="0s" calcMode="spline" values="1 1; 1.3 1.3; 1 1; 1 1" keyTimes="0; 0.5; 1; 1" keySplines="1 0 0.847 1; 0.127 0 0 1; 0 0 1 1" fill="freeze" /><g transform="translate(-8.25,-8.25)"><g id="i1" transform="matrix(1,0,0,1,8.25,8.25)"><path fill="#fc2c57" d="M-8,0C-8,4.416,-4.416,8,0,8C4.416,8,8,4.416,8,0C8,-4.416,4.416,-8,0,-8C-4.416,-8,-8,-4.416,-8,0Z" /></g><g id="i3" transform="matrix(1,0,0,1,8.25,7.194)"><path fill="#ffffff" d="M0,2.544C0.221,2.544,0.4,2.365,0.4,2.144C0.4,2.144,0.4,-2.144,0.4,-2.144C0.4,-2.365,0.221,-2.544,0,-2.544C-0.221,-2.544,-0.4,-2.365,-0.4,-2.144C-0.4,-2.144,-0.4,2.144,-0.4,2.144C-0.4,2.365,-0.221,2.544,0,2.544Z" /></g><g id="i4" transform="matrix(1,0,0,1,8.25,12.25)"><path fill="#ffffff" d="M0,-0.8C-0.442,-0.8,-0.8,-0.443,-0.8,0C-0.8,0.441,-0.442,0.8,0,0.8C0.442,0.8,0.8,0.441,0.8,0C0.8,-0.443,0.442,-0.8,0,-0.8Z" /></g></g></g></g></g></svg>